<svg xmlns="http://www.w3.org/2000/svg" version="1.1" xmlns:xlink="http://www.w3.org/1999/xlink" width="200" height="200"><svg xmlns="http://www.w3.org/2000/svg" version="1.1" xmlns:xlink="http://www.w3.org/1999/xlink" viewBox="0 0 200 200"><rect width="200" height="200" fill="url('#gradient')"></rect><defs><linearGradient id="SvgjsLinearGradient1001" gradientTransform="rotate(46 0.5 0.5)"><stop offset="0%" stop-color="#84b9ff"></stop><stop offset="100%" stop-color="#1d425b"></stop></linearGradient></defs><g><g fill="#f1eee5" transform="matrix(1.7847903862031007,0,0,1.7847903862031007,3.3091743530598094,109.67348582809556)" stroke="#778ca7" stroke-width="0.4"><path d="M10.73-5.36L10.73-5.21Q10.73-2.74 9.62-1.27Q8.52 0.20 6.63 0.20L6.63 0.20Q5.18 0.20 4.24-0.87L4.24-0.87L4.24 4.06L0.95 4.06L0.95-10.57L4.02-10.57L4.12-9.59Q5.07-10.76 6.61-10.76L6.61-10.76Q8.56-10.76 9.65-9.32Q10.73-7.88 10.73-5.36L10.73-5.36ZM7.44-5.06L7.44-5.41Q7.44-8.22 5.80-8.22L5.80-8.22Q4.63-8.22 4.24-7.38L4.24-7.38L4.24-3.22Q4.67-2.34 5.82-2.34L5.82-2.34Q7.39-2.34 7.44-5.06L7.44-5.06ZM17.29 0.20L17.29 0.20Q14.86 0.20 13.36-1.25Q11.86-2.71 11.86-5.03L11.86-5.03L11.86-5.30Q11.86-6.92 12.46-8.16Q13.06-9.40 14.21-10.08Q15.36-10.76 16.94-10.76L16.94-10.76Q19.17-10.76 20.46-9.38Q21.75-8.00 21.75-5.53L21.75-5.53L21.75-4.25L15.21-4.25Q15.38-3.36 15.98-2.85Q16.57-2.34 17.52-2.34L17.52-2.34Q19.08-2.34 19.96-3.44L19.96-3.44L21.46-1.66Q20.85-0.81 19.72-0.31Q18.59 0.20 17.29 0.20ZM16.92-8.22L16.92-8.22Q15.48-8.22 15.21-6.31L15.21-6.31L18.53-6.31L18.53-6.56Q18.54-7.35 18.13-7.79Q17.71-8.22 16.92-8.22ZM29.52-10.64L29.46-7.59L28.38-7.67Q26.83-7.67 26.39-6.69L26.39-6.69L26.39 0L23.10 0L23.10-10.57L26.18-10.57L26.29-9.21Q27.12-10.76 28.60-10.76L28.60-10.76Q29.13-10.76 29.52-10.64L29.52-10.64ZM36.18-2.97L36.18-2.97Q36.18-3.39 35.74-3.64Q35.30-3.90 34.07-4.17Q32.84-4.44 32.04-4.89Q31.24-5.33 30.82-5.97Q30.40-6.60 30.40-7.42L30.40-7.42Q30.40-8.88 31.60-9.82Q32.80-10.76 34.75-10.76L34.75-10.76Q36.84-10.76 38.11-9.81Q39.38-8.87 39.38-7.32L39.38-7.32L36.07-7.32Q36.07-8.59 34.74-8.59L34.74-8.59Q34.22-8.59 33.87-8.31Q33.52-8.02 33.52-7.59L33.52-7.59Q33.52-7.15 33.95-6.88Q34.38-6.60 35.32-6.43Q36.26-6.25 36.97-6.01L36.97-6.01Q39.36-5.19 39.36-3.07L39.36-3.07Q39.36-1.62 38.07-0.71Q36.79 0.20 34.75 0.20L34.75 0.20Q33.39 0.20 32.32-0.29Q31.26-0.78 30.66-1.62Q30.07-2.46 30.07-3.39L30.07-3.39L33.14-3.39Q33.16-2.66 33.63-2.32Q34.10-1.98 34.83-1.98L34.83-1.98Q35.51-1.98 35.84-2.26Q36.18-2.53 36.18-2.97ZM40.49-4.82L40.48-5.38Q40.48-6.96 41.09-8.20Q41.71-9.43 42.86-10.10Q44.01-10.76 45.57-10.76L45.57-10.76Q47.94-10.76 49.31-9.29Q50.67-7.82 50.67-5.29L50.67-5.29L50.67-5.18Q50.67-2.71 49.30-1.25Q47.93 0.20 45.59 0.20L45.59 0.20Q43.33 0.20 41.96-1.16Q40.60-2.51 40.49-4.82L40.49-4.82ZM43.78-5.77L43.77-5.18Q43.77-3.71 44.23-3.03Q44.69-2.34 45.59-2.34L45.59-2.34Q47.34-2.34 47.38-5.05L47.38-5.05L47.38-5.38Q47.38-8.22 45.57-8.22L45.57-8.22Q43.92-8.22 43.78-5.77L43.78-5.77ZM52.06-10.57L55.15-10.57L55.25-9.33Q56.35-10.76 58.27-10.76L58.27-10.76Q59.92-10.76 60.74-9.78Q61.55-8.79 61.58-6.81L61.58-6.81L61.58 0L58.28 0L58.28-6.67Q58.28-7.47 57.96-7.85Q57.64-8.22 56.79-8.22L56.79-8.22Q55.82-8.22 55.35-7.46L55.35-7.46L55.35 0L52.06 0L52.06-10.57ZM72.65 0L69.36 0Q69.18-0.32 69.04-0.95L69.04-0.95Q68.13 0.20 66.50 0.20L66.50 0.20Q65.01 0.20 63.96-0.71Q62.92-1.61 62.92-2.98L62.92-2.98Q62.92-4.70 64.19-5.58Q65.46-6.46 67.88-6.46L67.88-6.46L68.90-6.46L68.90-7.01Q68.90-8.47 67.64-8.47L67.64-8.47Q66.46-8.47 66.46-7.31L66.46-7.31L63.17-7.31Q63.17-8.85 64.48-9.80Q65.78-10.76 67.80-10.76Q69.82-10.76 71.00-9.78Q72.17-8.79 72.20-7.07L72.20-7.07L72.20-2.39Q72.22-0.94 72.65-0.17L72.65-0.17L72.65 0ZM67.29-2.15L67.29-2.15Q67.91-2.15 68.32-2.41Q68.72-2.68 68.90-3.01L68.90-3.01L68.90-4.70L67.94-4.70Q66.22-4.70 66.22-3.15L66.22-3.15Q66.22-2.71 66.52-2.43Q66.83-2.15 67.29-2.15ZM80.01-14.22L75.15 1.22L72.81 1.22L77.67-14.22L80.01-14.22ZM84.51-15L84.51 0L81.21 0L81.21-15L84.51-15ZM86.13-4.82L86.12-5.38Q86.12-6.96 86.74-8.20Q87.35-9.43 88.51-10.10Q89.66-10.76 91.21-10.76L91.21-10.76Q93.58-10.76 94.95-9.29Q96.32-7.82 96.32-5.29L96.32-5.29L96.32-5.18Q96.32-2.71 94.95-1.25Q93.57 0.20 91.23 0.20L91.23 0.20Q88.97 0.20 87.61-1.16Q86.24-2.51 86.13-4.82L86.13-4.82ZM89.42-5.77L89.41-5.18Q89.41-3.71 89.87-3.03Q90.33-2.34 91.23-2.34L91.23-2.34Q92.99-2.34 93.03-5.05L93.03-5.05L93.03-5.38Q93.03-8.22 91.21-8.22L91.21-8.22Q89.56-8.22 89.42-5.77L89.42-5.77ZM97.38-5.24L97.38-5.36Q97.38-6.96 97.91-8.19Q98.44-9.42 99.42-10.09Q100.41-10.76 101.72-10.76L101.72-10.76Q103.37-10.76 104.30-9.65L104.30-9.65L104.41-10.57L107.40-10.57L107.40-0.40Q107.40 1.00 106.75 2.03Q106.10 3.06 104.87 3.61Q103.64 4.16 102.02 4.16L102.02 4.16Q100.86 4.16 99.77 3.72Q98.68 3.28 98.11 2.58L98.11 2.58L99.48 0.64Q100.40 1.73 101.90 1.73L101.90 1.73Q104.09 1.73 104.09-0.52L104.09-0.52L104.09-0.85Q103.14 0.20 101.70 0.20L101.70 0.20Q99.77 0.20 98.57-1.28Q97.38-2.76 97.38-5.24L97.38-5.24ZM100.68-5.16L100.68-5.16Q100.68-3.86 101.17-3.10Q101.66-2.34 102.54-2.34L102.54-2.34Q103.60-2.34 104.09-3.06L104.09-3.06L104.09-7.50Q103.61-8.22 102.56-8.22L102.56-8.22Q101.68-8.22 101.18-7.44Q100.68-6.65 100.68-5.16Z"></path></g></g></svg><style>@media (prefers-color-scheme: light) { :root { filter: none; } }
@media (prefers-color-scheme: dark) { :root { filter: none; } }
</style></svg>